Coordinates
version=1
nRows=17
nColumns=33
inDegrees=yes

Units are S.I. units (second, meters, Newtons, ...)
Angles are in degrees.

endheader
time	ground_thorax_rot_x	ground_thorax_rot_y	ground_thorax_rot_z	ground_thorax_tx	ground_thorax_ty	ground_thorax_tz	clav_prot_r	clav_elev_r	scapula_abduction_r	scapula_elevation_r	scapula_upward_rot_r	scapula_winging_r	shoulder_elv_r	plane_of_elev_r	axial_rot_r	elbow_flexion_r	pro_sup_r	wrist_flex_r	wrist_dev_r	clav_prot_l	clav_elev_l	scapula_abduction_l	scapula_elevation_l	scapula_upward_rot_l	scapula_winging_l	shoulder_elv_l	plane_of_elev_l	axial_rot_l	elbow_flexion_l	pro_sup_l	wrist_flex_l	wrist_dev_l
     10.13000000	     19.34205663	     36.38009754	     58.00220652	      9.79648956	    790.60808396	    -40.27337164	     13.09919097	     35.81662580	     26.80927556	     45.00000000	    -45.00000000	   2436.96676339	   -649.82664609	     21.39121569	   -165.76401112	   1439.72016858	   -184.15189302	     11.81692850	     13.77315544	    -12.59802244	    -45.00000000	    -36.12060161	     45.00000000	    -45.00000000	   4782.38540931	  -5324.97849482	     25.13431282	     28.74628427	    -11.27584148	    405.07084466	     13.33198359	    -14.97515717
     10.14000000	     19.10333374	     36.50672831	     58.39076989	     10.84160082	    789.72398459	    -40.06708270	     13.11055189	     35.84507055	     26.48400589	     45.00000000	    -45.00000000	   2437.26668172	   -649.63241322	     21.33737443	   -165.61060005	   1439.70088378	   -183.99356502	     11.81514164	     13.36976142	    -12.67458402	    -45.00000000	    -35.81860522	     45.00000000	    -45.00000000	   4782.14271656	  -5324.88474450	     24.90181524	     28.20435613	    -11.25429850	    405.07882290	     12.98116390	    -14.56037326
     10.15000000	     19.14829216	     36.53010049	     58.28240364	     11.85751267	    788.86007584	    -39.87721952	     13.01999937	     35.82707191	     26.68318079	     45.00000000	    -45.00000000	   2437.09789639	   -649.86893845	     21.42080076	   -165.25411258	   1439.79044132	   -183.79885743	     11.74172297	     13.78553037	    -12.73881356	    -45.00000000	    -36.02219868	     45.00000000	    -45.00000000	   4782.44789597	  -5325.23021980	     25.09956585	     28.10296187	    -11.27767028	    404.99341632	     13.37414261	    -14.94664460
     10.16000000	     19.01671450	     36.64421981	     58.47673925	     12.85006491	    788.01512502	    -39.71056084	     13.06864533	     35.85487570	     26.58702620	     45.00000000	    -45.00000000	   2437.25321292	   -649.87008394	     21.29074877	   -165.20306446	   1439.81056082	   -183.63865114	     11.71752759	     13.62910167	    -12.84975109	    -45.00000000	    -35.86973957	     45.00000000	    -45.00000000	   4782.29791017	  -5325.20510513	     24.91585043	     27.85363040	    -11.29941555	    404.98791904	     13.18194580	    -14.70199823
     10.17000000	     18.87603533	     36.77551009	     58.70384514	     13.81955642	    787.19168088	    -39.56291870	     13.03191630	     35.89360845	     26.46508447	     45.00000000	    -45.00000000	   2437.36504338	   -649.88584643	     21.19195747	   -165.03806375	   1439.85936931	   -183.51102009	     11.71285629	     13.42090018	    -12.91888789	    -45.00000000	    -35.70850283	     45.00000000	    -45.00000000	   4782.24106113	  -5325.26547177	     24.82932944	     27.48363883	    -11.29831255	    404.98144601	     13.04131009	    -14.52477859
     10.18000000	     18.78632085	     36.83299015	     58.83726196	     14.75206593	    786.40388313	    -39.43116768	     13.03883702	     35.88285389	     26.27934095	     45.00000000	    -45.00000000	   2437.52692666	   -649.82518143	     21.23593997	   -164.78741305	   1439.92216068	   -183.40928917	     11.65898407	     13.33762985	    -12.97890112	    -45.00000000	    -35.58336319	     45.00000000	    -45.00000000	   4782.24826392	  -5325.28451103	     24.71720446	     27.13300214	    -11.29923011	    404.97265443	     12.97882060	    -14.44049213
     10.19000000	     18.68289633	     36.86184031	     59.02730669	     15.65229308	    785.64880073	    -39.30660157	     12.98041288	     35.90301501	     26.38638093	     45.00000000	    -45.00000000	   2437.62997743	   -649.95545578	     21.13373073	   -164.64120807	   1440.09963655	   -183.33819895	     11.58958949	     13.29751755	    -13.05683961	    -45.00000000	    -35.61369504	     45.00000000	    -45.00000000	   4782.30262405	  -5325.37841417	     24.62465070	     26.81053340	    -11.30497143	    404.97068521	     12.92948293	    -14.37400560
     10.20000000	     18.64659108	     36.99146181	     59.03438413	     16.51695040	    784.93105721	    -39.19164392	     12.99414108	     35.94292365	     26.17227203	     45.00000000	    -45.00000000	   2437.66954731	   -649.87705154	     21.15940452	   -164.42554220	   1439.99655839	   -183.26318151	     11.59028047	     13.27180770	    -13.12073037	    -45.00000000	    -35.44534488	     45.00000000	    -45.00000000	   4782.21787735	  -5325.48101801	     24.67689467	     26.61829629	    -11.29073687	    404.96229012	     12.93492622	    -14.37274459
     10.21000000	     18.47579138	     37.07103316	     59.35800441	     17.34847241	    784.24980697	    -39.08717809	     12.98740552	     35.86971206	     26.19690735	     45.00000000	    -45.00000000	   2437.70982579	   -649.99674867	     21.02974311	   -164.35344925	   1440.11929978	   -183.23183060	     11.55427341	     13.14453846	    -13.19503378	    -45.00000000	    -35.39636202	     45.00000000	    -45.00000000	   4782.26719514	  -5325.51177364	     24.48901281	     26.30707468	    -11.28831722	    404.98080222	     12.80053171	    -14.23491636
     10.22000000	     18.58299049	     37.07242228	     59.17803776	     18.14278765	    783.60950384	    -38.99446151	     12.92858638	     36.03694532	     25.98637814	     45.00000000	    -45.00000000	   2437.85988371	   -649.85816375	     21.12789682	   -163.97382632	   1439.99212566	   -183.15627741	     11.53862719	     13.23487563	    -13.21189392	    -45.00000000	    -35.32167842	     45.00000000	    -45.00000000	   4782.26029479	  -5325.67712628	     24.58073613	     26.07238618	    -11.29013977	    404.97545790	     12.91360975	    -14.34506942
     10.23000000	     18.27001656	     37.19850359	     59.72257792	     18.90384092	    783.00800724	    -38.91325718	     13.00322719	     35.80871694	     26.07691973	     45.00000000	    -45.00000000	   2437.73714235	   -650.00425125	     21.03686259	   -164.08044708	   1440.08418562	   -183.19046798	     11.54319743	     12.98692546	    -13.33928708	    -45.00000000	    -35.22707841	     45.00000000	    -45.00000000	   4782.20749054	  -5325.65183155	     24.38823410	     25.84519368	    -11.28537747	    405.00907294	     12.68106388	    -14.10474146
     10.24000000	     18.48613249	     37.16745642	     59.30638295	     19.63329501	    782.44576180	    -38.84420419	     12.82112521	     36.16072951	     25.97003398	     45.00000000	    -45.00000000	   2438.01329216	   -649.95547637	     20.93391167	   -163.50681720	   1440.05564397	   -183.10698847	     11.48781374	     13.18090699	    -13.30446565	    -45.00000000	    -35.26474437	     45.00000000	    -45.00000000	   4782.26819404	  -5325.80809880	     24.51703016	     25.63708508	    -11.30077912	    404.99740914	     12.88315162	    -14.30657633
     10.25000000	     18.14697860	     37.38610592	     59.80715166	     20.33149712	    781.92375414	    -38.78742309	     13.04394445	     35.77282195	     25.76112846	     45.00000000	    -45.00000000	   2437.84311885	   -650.06506435	     21.00044107	   -163.72952352	   1440.17336884	   -183.18606414	     11.46018056	     12.96140307	    -13.45151343	    -45.00000000	    -35.13320219	     45.00000000	    -45.00000000	   4782.19521937	  -5325.72630622	     24.31097984	     25.39514752	    -11.32299656	    405.04061778	     12.61712591	    -14.02227906
     10.26000000	     18.37537076	     37.24751216	     59.55020260	     20.99843247	    781.44457141	    -38.74750518	     12.75516725	     36.23256279	     25.92524046	     45.00000000	    -45.00000000	   2438.18430279	   -649.97034758	     20.72126968	   -163.21935606	   1440.05385113	   -183.12839906	     11.46593516	     13.07876410	    -13.33164493	    -45.00000000	    -35.10647188	     45.00000000	    -45.00000000	   4782.33017699	  -5325.94117757	     24.43045526	     25.23363403	    -11.28213586	    405.01788639	     12.84021937	    -14.27079544
     10.27000000	     17.95198399	     37.48243987	     60.17205097	     21.63132232	    781.01015643	    -38.72230256	     13.08289286	     35.61098732	     25.64917042	     45.00000000	    -45.00000000	   2437.82957520	   -650.14426848	     21.11691477	   -163.37160049	   1440.38781026	   -183.23393638	     11.37432121	     12.77726661	    -13.62887176	    -45.00000000	    -35.00030575	     45.00000000	    -45.00000000	   4782.17185204	  -5325.72463720	     24.10826768	     25.05735591	    -11.29697347	    405.07686305	     12.41591522	    -13.82055931
     10.28000000	     18.21207075	     37.43838833	     59.77752892	     22.23790972	    780.61506875	    -38.70962957	     12.84973368	     36.02038995	     25.80005710	     45.00000000	    -45.00000000	   2438.05331394	   -650.12714533	     20.84745637	   -162.97099711	   1440.29932508	   -183.23722638	     11.36970823	     12.88700046	    -13.49741513	    -45.00000000	    -35.03738200	     45.00000000	    -45.00000000	   4782.32532052	  -5325.93740337	     24.30967481	     25.01424334	    -11.32484477	    405.06309385	     12.67145274	    -14.06221587
     10.29000000	     18.02022797	     37.46909737	     60.08415685	     22.79528172	    780.27174477	    -38.70262404	     12.94454107	     35.98591168	     25.60424759	     45.00000000	    -45.00000000	   2438.34000103	   -649.92887184	     20.70226738	   -162.83544161	   1440.30737255	   -183.28465608	     11.34651125	     12.92328667	    -13.56756740	    -45.00000000	    -34.94934222	     45.00000000	    -45.00000000	   4782.18353781	  -5325.80748139	     24.10327819	     24.76554794	    -11.32287443	    405.09445466	     12.50959521	    -13.92182993
